<?xml version="1.0" encoding="utf-8"?>
<!-- Generator: Adobe Illustrator 24.0.0, SVG Export Plug-In . SVG Version: 6.00 Build 0)  -->
<svg version="1.1" xmlns="http://www.w3.org/2000/svg" xmlns:xlink="http://www.w3.org/1999/xlink" x="0px" y="0px"
	 viewBox="0 0 3710 3710" style="enable-background:new 0 0 3710 3710;" xml:space="preserve">
<style type="text/css">
	.st0{display:none;}
	.st1{display:inline;}
	.st2{fill:#FFFFFF;}
	.st3{fill:url(#SVGID_1_);}
	.st4{fill:#91B3FA;}
	.st5{fill:#BDD0FB;}
	.st6{fill:url(#SVGID_2_);}
	.st7{fill:url(#SVGID_3_);}
	.st8{fill:url(#SVGID_4_);}
	.st9{fill:url(#SVGID_5_);}
	.st10{fill:url(#SVGID_6_);}
	.st11{fill:url(#SVGID_7_);}
	.st12{fill:url(#SVGID_8_);}
	.st13{fill:url(#SVGID_9_);}
	.st14{fill:url(#SVGID_10_);}
	.st15{fill:url(#SVGID_11_);}
	.st16{fill:url(#SVGID_12_);}
	.st17{fill:url(#SVGID_13_);}
	.st18{fill:url(#SVGID_14_);}
	.st19{fill:url(#SVGID_15_);}
	.st20{fill:url(#SVGID_16_);}
	.st21{fill:url(#SVGID_17_);}
	.st22{fill:url(#SVGID_18_);}
	.st23{fill:url(#SVGID_19_);}
	.st24{fill:url(#SVGID_20_);}
	.st25{fill:url(#SVGID_21_);}
	.st26{fill:url(#SVGID_22_);}
	.st27{fill:#26264F;}
	.st28{fill:url(#SVGID_23_);}
	.st29{fill:url(#SVGID_24_);}
	.st30{fill:url(#SVGID_25_);}
	.st31{fill:url(#SVGID_26_);}
	.st32{fill:url(#SVGID_27_);}
	.st33{fill:url(#SVGID_28_);}
	.st34{fill:url(#SVGID_29_);}
	.st35{fill:url(#SVGID_30_);}
	.st36{fill:url(#SVGID_31_);}
	.st37{fill:url(#SVGID_32_);}
	.st38{fill:url(#SVGID_33_);}
	.st39{fill:url(#SVGID_34_);}
	.st40{fill:url(#SVGID_35_);}
	.st41{fill:url(#SVGID_36_);}
	.st42{fill:url(#SVGID_37_);}
	.st43{fill:url(#SVGID_38_);}
	.st44{fill:url(#SVGID_39_);}
	.st45{fill:url(#SVGID_40_);}
	.st46{fill:url(#SVGID_41_);}
	.st47{fill:url(#SVGID_42_);}
	.st48{fill:url(#SVGID_43_);}
	.st49{fill:url(#SVGID_44_);}
	.st50{fill:url(#SVGID_45_);}
	.st51{fill:url(#SVGID_46_);}
	.st52{fill:url(#SVGID_47_);}
	.st53{fill:url(#SVGID_48_);}
	.st54{fill:url(#SVGID_49_);}
	.st55{fill:url(#SVGID_50_);}
	.st56{fill:url(#SVGID_51_);}
	.st57{fill:url(#SVGID_52_);}
	.st58{fill:url(#SVGID_53_);}
	.st59{fill:url(#SVGID_54_);}
	.st60{fill:url(#SVGID_55_);}
	.st61{fill:url(#SVGID_56_);}
	.st62{fill:url(#SVGID_57_);}
	.st63{fill:url(#SVGID_58_);}
	.st64{fill:url(#SVGID_59_);}
</style>
<g id="Background" class="st0">
	<g class="st1">
		<g>
			<rect class="st2" width="3710" height="3710"/>
		</g>
	</g>
</g>
<g id="Illustration">
	<g>
		<linearGradient id="SVGID_1_" gradientUnits="userSpaceOnUse" x1="3589.052" y1="4057.1709" x2="1128.5176" y2="1001.3414">
			<stop  offset="0" style="stop-color:#DAE3FE"/>
			<stop  offset="1" style="stop-color:#E9EFFD"/>
		</linearGradient>
		<path class="st3" d="M2912.1,2852.1c-56.5,59.5-110,97.9-152.2,128.2c-496.6,356.4-1084.3,252.5-1209.2,227.1
			c-184.4-37.5-540.9-109.9-798.7-413c-389.9-458.6-329.2-1181-26.8-1657.9c55.3-87.2,347.6-571.4,941.6-649.1
			c359.5-47,778.5,47.8,1082,302C3385.8,1323.1,3340.4,2401.2,2912.1,2852.1z"/>
		<g>
			<g>
				<path class="st4" d="M667.3,1185.4c-0.9,0-1.9-0.4-2.5-1.1c-1.3-1.4-1.1-3.5,0.3-4.8c3.4-3,6.8-6,10.3-9c1.4-1.2,3.6-1,4.8,0.4
					c1.2,1.4,1,3.6-0.4,4.8c-3.4,2.9-6.8,5.9-10.2,8.9C668.9,1185.1,668.1,1185.4,667.3,1185.4z"/>
				<path class="st4" d="M1391.2,1520C1391.2,1520,1391.2,1520,1391.2,1520c-2-0.1-3.5-1.6-3.4-3.5c0.1-3.9,0.2-7.8,0.2-11.7
					c0-5.1-0.1-10.2-0.3-15.2c-0.1-1.9,1.4-3.5,3.3-3.5c1.7-0.1,3.5,1.4,3.5,3.3c0.2,5.1,0.3,10.3,0.3,15.5c0,4-0.1,7.9-0.2,11.9
					C1394.6,1518.5,1393.1,1520,1391.2,1520z M1387.3,1448.9c-1.7,0-3.1-1.2-3.4-2.9c-1.2-8.9-2.8-17.8-4.5-26.5
					c-0.4-1.8,0.8-3.6,2.7-4c1.8-0.4,3.6,0.8,4,2.7c1.8,8.9,3.4,18,4.6,27c0.3,1.9-1,3.6-2.9,3.8
					C1387.6,1448.9,1387.4,1448.9,1387.3,1448.9z M1371.7,1379.5c-1.4,0-2.8-0.9-3.2-2.4c-2.7-8.5-5.6-17.1-8.8-25.4
					c-0.7-1.8,0.2-3.7,2-4.4c1.8-0.7,3.7,0.2,4.4,2c3.2,8.5,6.3,17.2,9,25.8c0.6,1.8-0.4,3.7-2.2,4.3
					C1372.4,1379.4,1372.1,1379.5,1371.7,1379.5z M1345.1,1313.5c-1.2,0-2.4-0.7-3-1.9c-4-8-8.3-16-12.8-23.7
					c-0.9-1.6-0.4-3.7,1.2-4.7c1.6-0.9,3.7-0.4,4.7,1.2c4.6,7.8,8.9,15.9,13,24.1c0.8,1.7,0.2,3.7-1.5,4.6
					C1346.1,1313.4,1345.6,1313.5,1345.1,1313.5z M1308.1,1252.7c-1.1,0-2.1-0.5-2.8-1.4c-5.2-7.2-10.8-14.4-16.5-21.2
					c-1.2-1.4-1-3.6,0.4-4.8c1.4-1.2,3.6-1,4.8,0.4c5.8,7,11.4,14.3,16.8,21.6c1.1,1.5,0.8,3.6-0.8,4.8
					C1309.5,1252.5,1308.8,1252.7,1308.1,1252.7z M1261.6,1198.8c-0.9,0-1.7-0.3-2.4-1c-6.4-6.3-13-12.4-19.8-18.2
					c-1.4-1.2-1.6-3.4-0.3-4.8c1.2-1.4,3.4-1.6,4.8-0.3c6.9,6,13.6,12.2,20.1,18.5c1.3,1.3,1.4,3.5,0,4.8
					C1263.4,1198.5,1262.5,1198.8,1261.6,1198.8z M1207,1153.3c-0.7,0-1.4-0.2-2-0.6c-7.3-5.1-14.9-10.1-22.5-14.8
					c-1.6-1-2.1-3.1-1.1-4.7c1-1.6,3.1-2.1,4.7-1.1c7.7,4.7,15.4,9.8,22.9,15c1.5,1.1,1.9,3.2,0.8,4.7
					C1209.1,1152.8,1208,1153.3,1207,1153.3z M712.6,1149.8c-1.1,0-2.2-0.5-2.8-1.5c-1.1-1.6-0.7-3.7,0.9-4.7
					c7.5-5.1,15.3-10,23.1-14.7c1.6-1,3.7-0.4,4.7,1.2c1,1.6,0.4,3.7-1.2,4.7c-7.7,4.6-15.3,9.4-22.7,14.5
					C714,1149.6,713.3,1149.8,712.6,1149.8z M1145.6,1117.4c-0.5,0-1-0.1-1.5-0.3c-8-3.9-16.3-7.5-24.6-10.9
					c-1.7-0.7-2.6-2.7-1.9-4.4c0.7-1.7,2.7-2.6,4.4-1.9c8.4,3.4,16.8,7.2,25,11.1c1.7,0.8,2.4,2.8,1.6,4.5
					C1148.1,1116.6,1146.8,1117.4,1145.6,1117.4z M774.6,1114.7c-1.3,0-2.5-0.7-3.1-2c-0.8-1.7,0-3.7,1.7-4.5
					c7.5-3.5,15.3-6.8,23.1-9.9l2.1-0.8c1.7-0.7,3.7,0.2,4.4,1.9c0.7,1.7-0.2,3.7-1.9,4.4l-2.1,0.8c-7.6,3-15.3,6.3-22.7,9.7
					C775.5,1114.6,775,1114.7,774.6,1114.7z M1079.2,1091.8c-0.3,0-0.6,0-1-0.1c-8.6-2.5-17.4-4.8-26.1-6.8c-1.8-0.4-3-2.2-2.6-4.1
					c0.4-1.8,2.2-3,4.1-2.6c8.8,2,17.7,4.3,26.5,6.9c1.8,0.5,2.8,2.4,2.3,4.2C1082,1090.9,1080.6,1091.8,1079.2,1091.8z
					 M841.3,1090.1c-1.5,0-2.9-1-3.3-2.5c-0.5-1.8,0.6-3.7,2.4-4.2c8.8-2.4,17.7-4.6,26.6-6.5c1.9-0.4,3.6,0.8,4,2.6
					c0.4,1.8-0.8,3.6-2.6,4c-8.7,1.9-17.5,4-26.2,6.4C842,1090.1,841.6,1090.1,841.3,1090.1z M1009.5,1077.4c-0.1,0-0.3,0-0.4,0
					c-8.9-1.1-17.9-1.9-26.8-2.4c-1.9-0.1-3.3-1.7-3.2-3.6c0.1-1.9,1.7-3.3,3.6-3.2c9.1,0.5,18.2,1.4,27.2,2.5
					c1.9,0.2,3.2,1.9,3,3.8C1012.6,1076.2,1011.1,1077.4,1009.5,1077.4z M911.2,1076.7c-1.7,0-3.2-1.3-3.4-3c-0.2-1.9,1.1-3.5,3-3.7
					c9-1,18.2-1.7,27.3-2.1c1.9,0,3.5,1.4,3.5,3.3c0.1,1.9-1.4,3.5-3.3,3.5c-8.9,0.4-18,1.1-26.9,2
					C911.5,1076.7,911.4,1076.7,911.2,1076.7z"/>
				<path class="st4" d="M1385.8,1577.6c-0.2,0-0.4,0-0.6,0c-1.9-0.3-3.1-2.1-2.8-3.9c0.7-4.4,1.4-8.9,2-13.3
					c0.2-1.9,1.9-3.2,3.8-2.9c1.9,0.2,3.2,1.9,2.9,3.8c-0.6,4.5-1.3,9.1-2,13.6C1388.9,1576.5,1387.4,1577.6,1385.8,1577.6z"/>
			</g>
			<g>
				<path class="st4" d="M1208.1,1862.7c-1.1,0-2.1-0.5-2.8-1.4c-1.1-1.5-0.7-3.7,0.8-4.7c3.7-2.6,7.3-5.3,10.9-8
					c1.5-1.1,3.6-0.8,4.8,0.7c1.1,1.5,0.8,3.6-0.7,4.8c-3.6,2.8-7.3,5.4-11.1,8.1C1209.4,1862.5,1208.7,1862.7,1208.1,1862.7z"/>
				<path class="st4" d="M957.4,1942.4c-4.5,0-8.9-0.1-13.4-0.2c-1.9-0.1-3.4-1.6-3.3-3.5c0.1-1.9,1.7-3.4,3.5-3.3
					c8.8,0.3,17.7,0.3,26.5,0c1.9-0.1,3.4,1.4,3.5,3.3c0.1,1.9-1.4,3.4-3.3,3.5C966.5,1942.4,961.9,1942.4,957.4,1942.4z
					 M900.9,1938.7c-0.1,0-0.3,0-0.4,0c-8.9-1.2-17.8-2.6-26.6-4.3c-1.8-0.4-3-2.1-2.7-4c0.4-1.8,2.1-3.1,4-2.7
					c8.6,1.7,17.4,3.1,26.2,4.3c1.9,0.2,3.2,2,2.9,3.8C904,1937.5,902.6,1938.7,900.9,1938.7z M1014.1,1938.7c-1.7,0-3.1-1.2-3.4-3
					c-0.2-1.9,1.1-3.6,2.9-3.8c8.7-1.2,17.5-2.6,26.2-4.3c1.8-0.4,3.6,0.8,4,2.7c0.4,1.8-0.8,3.6-2.7,4c-8.8,1.7-17.7,3.2-26.6,4.4
					C1014.4,1938.7,1014.2,1938.7,1014.1,1938.7z M832.4,1924c-0.3,0-0.7,0-1-0.1c-8.6-2.6-17.1-5.5-25.5-8.6
					c-1.8-0.7-2.7-2.6-2-4.4c0.7-1.8,2.6-2.7,4.4-2c8.3,3,16.7,5.9,25.1,8.4c1.8,0.5,2.8,2.4,2.3,4.2
					C835.2,1923,833.9,1924,832.4,1924z M1082.6,1923.9c-1.5,0-2.8-0.9-3.3-2.4c-0.5-1.8,0.5-3.7,2.3-4.2c8.4-2.5,16.9-5.4,25.1-8.4
					c1.8-0.7,3.7,0.2,4.4,2c0.7,1.8-0.2,3.7-2,4.4c-8.4,3.1-17,6-25.5,8.6C1083.2,1923.8,1082.9,1923.9,1082.6,1923.9z
					 M767.2,1898.4c-0.5,0-1-0.1-1.5-0.3c-8-3.9-16.1-8.1-23.8-12.5c-1.6-0.9-2.2-3-1.3-4.6c0.9-1.6,3-2.2,4.6-1.3
					c7.6,4.3,15.5,8.5,23.4,12.3c1.7,0.8,2.4,2.9,1.6,4.5C769.7,1897.7,768.4,1898.4,767.2,1898.4z M1147.8,1898.3
					c-1.3,0-2.5-0.7-3.1-1.9c-0.8-1.7-0.1-3.7,1.6-4.5c7.9-3.9,15.8-8,23.5-12.3c1.6-0.9,3.7-0.3,4.6,1.3c0.9,1.6,0.3,3.7-1.3,4.6
					c-7.8,4.4-15.8,8.6-23.8,12.5C1148.8,1898.2,1148.3,1898.3,1147.8,1898.3z M706.9,1862.8c-0.7,0-1.4-0.2-2-0.6
					c-7.3-5.1-14.5-10.6-21.5-16.2c-1.5-1.2-1.7-3.3-0.5-4.8c1.2-1.5,3.3-1.7,4.8-0.5c6.9,5.5,14,10.9,21.2,15.9
					c1.5,1.1,1.9,3.2,0.8,4.7C709,1862.3,708,1862.8,706.9,1862.8z M653.1,1818c-0.9,0-1.7-0.3-2.4-1c-6.4-6.3-12.6-12.8-18.6-19.4
					c-1.3-1.4-1.1-3.5,0.3-4.8c1.4-1.3,3.5-1.1,4.8,0.3c5.9,6.5,12,13,18.3,19.1c1.3,1.3,1.4,3.5,0,4.8
					C654.9,1817.7,654,1818,653.1,1818z M607.3,1765.1c-1,0-2.1-0.5-2.7-1.4c-5.3-7.2-10.4-14.7-15.2-22.2c-1-1.6-0.6-3.7,1-4.7
					c1.6-1,3.7-0.6,4.7,1c4.7,7.4,9.8,14.8,15,21.8c1.1,1.5,0.8,3.6-0.7,4.8C608.7,1764.9,608,1765.1,607.3,1765.1z M570.7,1705.4
					c-1.2,0-2.4-0.7-3-1.9c-4-8-7.9-16.2-11.4-24.3c-0.7-1.7,0-3.7,1.8-4.5c1.7-0.8,3.7,0,4.5,1.8c3.5,8.1,7.3,16.1,11.3,24
					c0.9,1.7,0.2,3.7-1.5,4.6C571.7,1705.3,571.2,1705.4,570.7,1705.4z M544,1640.6c-1.4,0-2.8-0.9-3.2-2.4
					c-2.7-8.5-5.2-17.2-7.4-25.9c-0.5-1.8,0.6-3.7,2.5-4.1c1.8-0.5,3.7,0.6,4.1,2.5c2.2,8.5,4.6,17.1,7.3,25.5
					c0.6,1.8-0.4,3.7-2.2,4.3C544.7,1640.6,544.3,1640.6,544,1640.6z M528,1572.4c-1.7,0-3.1-1.2-3.4-2.9
					c-1.3-8.8-2.4-17.8-3.2-26.7c-0.2-1.9,1.2-3.5,3.1-3.7c1.9-0.2,3.5,1.2,3.7,3.1c0.8,8.8,1.8,17.6,3.1,26.3
					c0.3,1.9-1,3.6-2.9,3.9C528.4,1572.4,528.2,1572.4,528,1572.4z M523.3,1502.6C523.3,1502.6,523.3,1502.6,523.3,1502.6
					c-1.9,0-3.4-1.6-3.4-3.4c0.1-8.9,0.5-18,1.2-26.9c0.1-1.9,1.8-3.3,3.6-3.1c1.9,0.1,3.3,1.8,3.1,3.7c-0.7,8.8-1.1,17.7-1.2,26.5
					C526.7,1501.1,525.1,1502.6,523.3,1502.6z"/>
				<path class="st4" d="M530,1432.6c-0.2,0-0.4,0-0.6-0.1c-1.9-0.3-3.1-2.1-2.8-3.9c0.8-4.5,1.7-9,2.6-13.5c0.4-1.8,2.2-3,4-2.6
					c1.8,0.4,3,2.2,2.6,4c-0.9,4.4-1.8,8.8-2.6,13.2C533,1431.5,531.6,1432.6,530,1432.6z"/>
			</g>
			<g>
				<path class="st4" d="M642.3,1395.9c-0.9,2-0.5,4.4,1.1,6l45.4,44.2c-6.2,29-7.8,59.1-4.3,89.4l-49.4,39.7
					c-1.7,1.4-2.4,3.7-1.6,5.8l25.7,71.5c0.8,2.1,2.7,3.5,5,3.4l63.3-0.8c16.6,25.6,37,47.8,60.2,66.2l-6.8,63
					c-0.2,2.2,0.9,4.3,3,5.3l68.8,32.4c2,0.9,4.4,0.5,6-1.1l44.2-45.4c29,6.2,59.1,7.8,89.4,4.3l39.7,49.4c1.4,1.7,3.7,2.4,5.8,1.6
					l71.5-25.7c2.1-0.8,3.5-2.7,3.4-5l-0.8-63.3c25.6-16.6,47.8-37,66.2-60.2l63,6.8c2.2,0.2,4.3-1,5.3-3l32.4-68.8
					c0.9-2,0.5-4.4-1.1-6l-45.4-44.2c6.2-29,7.8-59.1,4.3-89.4l49.4-39.7c1.7-1.4,2.4-3.7,1.6-5.8l-25.7-71.5
					c-0.8-2.1-2.7-3.5-5-3.4l-63.3,0.8c-16.6-25.6-37-47.8-60.2-66.2l6.8-63c0.2-2.2-0.9-4.3-3-5.3l-68.8-32.4c-2-0.9-4.4-0.5-6,1.1
					l-44.2,45.4c-29-6.2-59.1-7.8-89.4-4.3l-39.7-49.4c-1.4-1.7-3.7-2.4-5.8-1.6l-71.5,25.7c-2.1,0.8-3.5,2.7-3.4,5l0.8,63.3
					c-25.6,16.6-47.8,37-66.2,60.2l-63-6.8c-2.2-0.2-4.3,0.9-5.3,3L642.3,1395.9z"/>
				<g>
					<path class="st5" d="M960.7,1576.4c-4.7,0-9.4-0.5-14.1-1.4c-19-3.7-35.5-14.6-46.3-30.7l0,0c-22.4-33.2-13.5-78.4,19.7-100.8
						c16.1-10.8,35.4-14.8,54.5-11c19,3.7,35.5,14.6,46.3,30.7c10.8,16.1,14.8,35.4,11,54.5c-3.7,19-14.6,35.5-30.7,46.3
						C989,1572.1,975,1576.4,960.7,1576.4z M960.4,1441.3c-12.3,0-24.3,3.6-34.7,10.7c-28.5,19.2-36.1,58.1-16.9,86.6l0,0
						c9.3,13.8,23.5,23.2,39.8,26.4c16.4,3.2,33-0.2,46.8-9.5c13.8-9.3,23.2-23.5,26.4-39.8c3.2-16.4-0.2-33-9.5-46.8
						c-9.3-13.8-23.5-23.2-39.8-26.4C968.5,1441.7,964.4,1441.3,960.4,1441.3z"/>
				</g>
				<path class="st5" d="M961.9,1693c-27.4,0-54.7-6-80.2-18.1c-45.6-21.5-80.1-59.4-97.1-106.8l0,0c-4.1-11.4-7.1-23.2-9-35.1
					c-0.1-0.5-0.1-0.9-0.2-1.4c-0.1-0.8-0.2-1.7-0.3-2.5l10.1-1.4c1.7,12.5,4.7,24.9,9,36.9l0,0c16.1,44.8,48.8,80.7,91.9,101
					c43.1,20.3,91.5,22.6,136.4,6.4c72.7-26.2,118-94.9,118-168c0-20-3.4-40.3-10.5-60.2c-33.3-92.5-135.7-140.7-228.2-107.4
					c-30.4,11-57.3,29.9-77.6,54.8l-7.9-6.5c21.5-26.3,49.9-46.4,82.1-57.9c97.8-35.2,206.1,15.7,241.3,113.6
					c7.6,21,11.2,42.5,11.2,63.7c0,77.3-47.9,150-124.7,177.6C1005.1,1689.2,983.5,1693,961.9,1693z"/>
			</g>
		</g>
		<g>
			<g>
				<path class="st4" d="M1161.7,1106.9c-1.5,0-2.9-1-3.3-2.5c-1.1-4.4-2.2-8.9-3.1-13.4c-0.4-1.8,0.8-3.6,2.7-4
					c1.8-0.4,3.6,0.8,4,2.7c0.9,4.4,1.9,8.8,3,13.1c0.5,1.8-0.6,3.7-2.4,4.2C1162.3,1106.9,1162,1106.9,1161.7,1106.9z"/>
				<path class="st4" d="M1153.9,1047c-1.9,0-3.4-1.5-3.4-3.4l0-1.5c0-8.4,0.4-16.9,1.3-25.3l0.2-2.4c0.2-1.9,1.8-3.2,3.7-3
					c1.9,0.2,3.2,1.9,3,3.7l-0.2,2.3c-0.8,8.2-1.2,16.5-1.2,24.6l0,1.5C1157.3,1045.5,1155.8,1047,1153.9,1047
					C1153.9,1047,1153.9,1047,1153.9,1047z M1164.9,972.3c-0.3,0-0.7,0-1-0.2c-1.8-0.6-2.8-2.5-2.2-4.3c2.9-9.3,6.3-18.5,10.3-27.4
					c0.8-1.7,2.8-2.5,4.5-1.7c1.7,0.8,2.5,2.8,1.7,4.5c-3.8,8.6-7.2,17.6-10,26.7C1167.7,971.4,1166.4,972.3,1164.9,972.3z
					 M1198.2,904.5c-0.7,0-1.4-0.2-1.9-0.6c-1.5-1.1-1.9-3.2-0.8-4.7c5.6-8,11.7-15.7,18.2-22.9c1.3-1.4,3.4-1.5,4.8-0.3
					c1.4,1.3,1.5,3.4,0.3,4.8c-6.3,7.1-12.2,14.6-17.7,22.3C1200.3,904,1199.2,904.5,1198.2,904.5z M1250.5,850c-1,0-2-0.5-2.7-1.3
					c-1.1-1.5-0.9-3.6,0.6-4.8c7.7-5.9,15.9-11.4,24.2-16.4c1.6-1,3.7-0.4,4.7,1.2c1,1.6,0.4,3.7-1.2,4.7
					c-8.1,4.8-16.1,10.2-23.6,15.9C1251.9,849.8,1251.2,850,1250.5,850z M1493.2,818.1c-0.4,0-0.9-0.1-1.3-0.3
					c-8.7-3.6-17.8-6.7-26.9-9.3c-1.8-0.5-2.9-2.4-2.4-4.2c0.5-1.8,2.4-2.9,4.2-2.4c9.4,2.6,18.7,5.8,27.7,9.5
					c1.7,0.7,2.6,2.7,1.9,4.4C1495.8,817.3,1494.5,818.1,1493.2,818.1z M1316.7,813.9c-1.4,0-2.7-0.9-3.2-2.3
					c-0.6-1.8,0.3-3.7,2.1-4.4c9.2-3.3,18.6-6.1,28.1-8.2c1.8-0.4,3.7,0.7,4.1,2.6c0.4,1.8-0.7,3.7-2.6,4.1
					c-9.2,2.1-18.4,4.8-27.3,8C1317.5,813.9,1317.1,813.9,1316.7,813.9z M1419.7,800.4c-0.1,0-0.2,0-0.3,0
					c-6.8-0.6-13.7-0.7-20.4-0.8c-2.7,0-5.4,0-8.1,0.1c-1.9,0-3.5-1.4-3.5-3.3c-0.1-1.9,1.4-3.5,3.3-3.5c2.8-0.1,5.5-0.1,8.5-0.1
					c6.9,0,13.9,0.3,20.8,0.9c1.9,0.2,3.3,1.8,3.1,3.7C1423,799.1,1421.5,800.4,1419.7,800.4z"/>
				<path class="st4" d="M1545.8,847.9c-0.7,0-1.4-0.2-2-0.7c-3.6-2.7-7.3-5.3-11-7.7c-1.6-1-2-3.1-1-4.7c1-1.6,3.1-2,4.7-1
					c3.8,2.5,7.6,5.2,11.3,7.9c1.5,1.1,1.8,3.3,0.7,4.8C1547.9,847.4,1546.9,847.9,1545.8,847.9z"/>
			</g>
			<g>
				<path class="st4" d="M1643.6,1017.3c-1.7,0-3.2-1.3-3.4-3c-0.5-4.4-1.1-8.9-1.9-13.3c-0.3-1.9,0.9-3.6,2.8-3.9
					c1.9-0.3,3.6,0.9,3.9,2.8c0.8,4.5,1.4,9.1,1.9,13.7c0.2,1.9-1.1,3.6-3,3.8C1643.8,1017.2,1643.7,1017.3,1643.6,1017.3z"/>
				<path class="st4" d="M1394.3,1290.7C1394.3,1290.7,1394.3,1290.7,1394.3,1290.7c-6.6-0.1-13.2-0.6-19.8-1.2c-3-0.3-6-0.7-9-1.1
					c-1.9-0.3-3.2-2-2.9-3.8c0.3-1.9,2-3.2,3.8-2.9c2.9,0.4,5.8,0.7,8.8,1c6.4,0.6,12.8,1,19.2,1.2c1.9,0,3.4,1.6,3.3,3.5
					C1397.7,1289.3,1396.2,1290.7,1394.3,1290.7z M1440.3,1287.4c-1.6,0-3.1-1.2-3.4-2.8c-0.3-1.9,0.9-3.6,2.8-3.9
					c9.2-1.5,18.4-3.6,27.3-6.2c1.8-0.5,3.7,0.5,4.2,2.3c0.5,1.8-0.5,3.7-2.3,4.2c-9.2,2.7-18.6,4.8-28.1,6.4
					C1440.7,1287.4,1440.5,1287.4,1440.3,1287.4z M1321.1,1278c-0.4,0-0.7-0.1-1.1-0.2c-9.1-3-18.1-6.7-26.7-10.7
					c-1.7-0.8-2.4-2.8-1.6-4.5c0.8-1.7,2.8-2.4,4.5-1.6c8.4,4,17.1,7.5,26,10.4c1.8,0.6,2.7,2.5,2.1,4.3
					C1323.9,1277.1,1322.5,1278,1321.1,1278z M1510.8,1264.2c-1.2,0-2.4-0.7-3-1.9c-0.9-1.7-0.2-3.7,1.5-4.6
					c8.3-4.2,16.4-9,24.2-14.1c1.6-1,3.7-0.6,4.7,1c1,1.6,0.6,3.7-1,4.7c-8,5.3-16.3,10.2-24.8,14.5
					C1511.9,1264,1511.3,1264.2,1510.8,1264.2z M1571.2,1220.8c-0.9,0-1.8-0.3-2.4-1c-1.3-1.3-1.3-3.5,0.1-4.8
					c6.7-6.5,13-13.5,18.9-20.7c1.2-1.5,3.3-1.7,4.8-0.5c1.5,1.2,1.7,3.3,0.5,4.8c-6,7.4-12.6,14.6-19.4,21.3
					C1572.9,1220.5,1572,1220.8,1571.2,1220.8z M1615.9,1161.5c-0.5,0-1.1-0.1-1.6-0.4c-1.7-0.9-2.3-3-1.4-4.6
					c4.4-8.2,8.4-16.8,11.8-25.4c0.7-1.7,2.7-2.6,4.4-1.9c1.7,0.7,2.6,2.7,1.9,4.4c-3.5,8.9-7.6,17.7-12.1,26.1
					C1618.3,1160.9,1617.1,1161.5,1615.9,1161.5z M1640.7,1091.5c-0.2,0-0.4,0-0.6-0.1c-1.8-0.4-3.1-2.1-2.7-4
					c1.3-7,2.4-14.2,3.1-21.4c0.2-2.1,0.4-4.3,0.6-6.4c0.1-1.9,1.7-3.3,3.6-3.1c1.9,0.1,3.3,1.8,3.1,3.6c-0.2,2.2-0.4,4.4-0.6,6.6
					c-0.7,7.4-1.8,14.8-3.2,22C1643.8,1090.4,1642.3,1091.5,1640.7,1091.5z"/>
				<path class="st4" d="M1255,1243.8c-0.7,0-1.4-0.2-2-0.7c-3.7-2.7-7.4-5.5-10.9-8.4c-1.5-1.2-1.7-3.3-0.5-4.8
					c1.2-1.5,3.3-1.7,4.8-0.5c3.4,2.8,7,5.6,10.6,8.2c1.5,1.1,1.9,3.2,0.7,4.8C1257.1,1243.3,1256,1243.8,1255,1243.8z"/>
			</g>
			<g>
				<path class="st4" d="M1262.8,1171.8c0.8,1,2.1,1.4,3.3,1l34-11.3c12.9,10.6,27.7,19.3,43.8,25.4l7.1,35.1
					c0.2,1.2,1.3,2.2,2.5,2.3l42.7,5.7c1.2,0.2,2.5-0.5,3-1.6l16.1-32.1c17.2-1.7,33.6-6.2,48.9-13.1l29.9,19.8
					c1,0.7,2.4,0.6,3.4-0.1l34.2-26.1c1-0.8,1.4-2.1,1-3.3l-11.3-34c10.6-12.9,19.3-27.7,25.4-43.8l35.1-7.1
					c1.2-0.2,2.2-1.3,2.3-2.5l5.7-42.7c0.2-1.2-0.5-2.5-1.6-3l-32.1-16.1c-1.7-17.2-6.2-33.6-13.1-48.9l19.8-29.9
					c0.7-1,0.6-2.4-0.1-3.4l-26.1-34.2c-0.8-1-2.1-1.4-3.3-1l-34,11.3c-12.9-10.6-27.7-19.3-43.8-25.4l-7.1-35.1
					c-0.3-1.2-1.3-2.2-2.5-2.3l-42.7-5.7c-1.2-0.2-2.5,0.5-3,1.6l-16.1,32.1c-17.2,1.7-33.6,6.2-48.9,13l-29.9-19.8
					c-1-0.7-2.4-0.6-3.4,0.1l-34.2,26.1c-1,0.8-1.4,2.1-1,3.3l11.3,34c-10.6,12.9-19.3,27.7-25.4,43.8l-35.1,7.1
					c-1.2,0.2-2.2,1.3-2.3,2.5l-5.7,42.7c-0.2,1.2,0.5,2.5,1.6,3l32.1,16.1c1.7,17.2,6.2,33.6,13.1,48.9l-19.8,29.9
					c-0.7,1-0.6,2.4,0.1,3.4L1262.8,1171.8z"/>
				<g>
					<path class="st5" d="M1399.7,1083.2c-9.7,0-19.1-3.2-26.8-9.4c-9.1-7.2-14.8-17.5-16.1-29c-2.7-23.7,14.3-45.3,38.1-48
						c11.5-1.3,22.8,1.9,31.9,9.1c9.1,7.2,14.8,17.5,16.1,29c1.3,11.5-1.9,22.8-9.1,31.9c-7.2,9.1-17.5,14.8-29,16.1
						C1403,1083.1,1401.3,1083.2,1399.7,1083.2z M1399.8,1006.8c-1.3,0-2.6,0.1-3.9,0.2c-18.1,2.1-31.2,18.6-29.1,36.7
						c1,8.8,5.4,16.6,12.3,22.1c6.9,5.5,15.6,8,24.4,6.9l0,0c8.8-1,16.6-5.4,22.1-12.3c5.5-6.9,8-15.6,6.9-24.4
						c-1-8.8-5.4-16.6-12.3-22.1C1414.4,1009.2,1407.2,1006.8,1399.8,1006.8z"/>
				</g>
				<path class="st5" d="M1400.7,1148.2c-4.8,0-9.7-0.3-14.6-1c-7.3-1-14.4-2.7-21.3-5c-0.4-0.1-0.8-0.3-1.2-0.4l3.4-9.6
					c6.6,2.4,13.4,4,20.4,5l0,0c24.4,3.2,48.7-2.6,68.8-16.4c1.4-1,2.8-2,4.2-3c20.9-16,34.4-39.2,37.9-65.4
					c0.6-4.4,0.9-8.9,0.9-13.2c0-21.5-7-42.4-20.3-59.8c-16-20.9-39.2-34.4-65.4-37.9c-54-7.2-103.7,30.9-110.9,84.8
					c-0.6,4.3-0.9,8.7-0.9,13.1c0,13.4,2.7,26.7,8,39l-9.4,4c-5.9-13.6-8.9-28.3-8.9-43.1c0-4.8,0.3-9.6,1-14.4
					c7.9-59.5,62.8-101.5,122.4-93.6c28.8,3.8,54.5,18.7,72.1,41.8c14.7,19.2,22.4,42.2,22.4,66c0,4.8-0.3,9.7-1,14.6
					c-3.8,28.8-18.7,54.5-41.8,72.1C1447.4,1140.5,1424.4,1148.2,1400.7,1148.2z"/>
			</g>
		</g>
		<g>
			<linearGradient id="SVGID_2_" gradientUnits="userSpaceOnUse" x1="3142.3113" y1="1601.2289" x2="2184.4087" y2="2356.3647">
				<stop  offset="0" style="stop-color:#FF928E"/>
				<stop  offset="1" style="stop-color:#FE7062"/>
			</linearGradient>
			<path class="st6" d="M2328.1,3242.9h-803.5V1896.2c0-22.3,18.1-40.4,40.4-40.4h722.6c22.3,0,40.4,18.1,40.4,40.4V3242.9z"/>
			<linearGradient id="SVGID_3_" gradientUnits="userSpaceOnUse" x1="2100.0249" y1="1753.0844" x2="1356.8607" y2="3350.5381">
				<stop  offset="0" style="stop-color:#FF928E"/>
				<stop  offset="1" style="stop-color:#FE7062"/>
			</linearGradient>
			<path class="st7" d="M2124,3242.9h-803.5V1896.2c0-22.3,18.1-40.4,40.4-40.4h722.6c22.3,0,40.4,18.1,40.4,40.4V3242.9z"/>
			<g>
				<linearGradient id="SVGID_4_" gradientUnits="userSpaceOnUse" x1="1530.8662" y1="1605.0503" x2="1575.1023" y2="1118.4509">
					<stop  offset="0" style="stop-color:#FEBBBA"/>
					<stop  offset="1" style="stop-color:#FF928E"/>
				</linearGradient>
				<path class="st8" d="M1374.4,2115.2c-2.8,0-5.1-2.3-5.1-5.1v-98.4c0-52.6,44.1-95.4,98.4-95.4H1622c2.8,0,5.1,2.3,5.1,5.1
					s-2.3,5.1-5.1,5.1h-154.3c-48.6,0-88.2,38.2-88.2,85.2v98.4C1379.5,2112.9,1377.2,2115.2,1374.4,2115.2z"/>
				<linearGradient id="SVGID_5_" gradientUnits="userSpaceOnUse" x1="1428.8053" y1="1595.7734" x2="1473.0414" y2="1109.1741">
					<stop  offset="0" style="stop-color:#FEBBBA"/>
					<stop  offset="1" style="stop-color:#FF928E"/>
				</linearGradient>
				<path class="st9" d="M1374.4,2219.5c-2.8,0-5.1-2.3-5.1-5.1v-40.1c0-2.8,2.3-5.1,5.1-5.1c2.8,0,5.1,2.3,5.1,5.1v40.1
					C1379.5,2217.2,1377.2,2219.5,1374.4,2219.5z"/>
			</g>
		</g>
		<g>
			<linearGradient id="SVGID_6_" gradientUnits="userSpaceOnUse" x1="731.05" y1="2802.6382" x2="1423.3867" y2="2802.6382">
				<stop  offset="0" style="stop-color:#4F52FF"/>
				<stop  offset="1" style="stop-color:#4042E2"/>
			</linearGradient>
			<path class="st10" d="M1423.4,3241H731v-836.2c0-22.3,18.1-40.4,40.4-40.4H1383c22.3,0,40.4,18.1,40.4,40.4V3241z"/>
			<linearGradient id="SVGID_7_" gradientUnits="userSpaceOnUse" x1="1271.7177" y1="2365.5381" x2="113.4468" y2="3672.1221">
				<stop  offset="0" style="stop-color:#4F52FF"/>
				<stop  offset="1" style="stop-color:#4042E2"/>
			</linearGradient>
			<path class="st11" d="M1219.3,3241H526.9v-836.2c0-22.3,18.1-40.4,40.4-40.4h611.5c22.3,0,40.4,18.1,40.4,40.4V3241z"/>
			<g>
				<path class="st4" d="M584.1,2614.8c-2.8,0-5.1-2.3-5.1-5.1v-103.9c0-55.4,51.7-100.4,115.2-100.4h182c2.8,0,5.1,2.3,5.1,5.1
					s-2.3,5.1-5.1,5.1h-182c-57.9,0-105,40.5-105,90.2v103.9C589.2,2612.5,586.9,2614.8,584.1,2614.8z"/>
				<path class="st4" d="M584.1,2725c-2.8,0-5.1-2.3-5.1-5.1v-42.3c0-2.8,2.3-5.1,5.1-5.1c2.8,0,5.1,2.3,5.1,5.1v42.3
					C589.2,2722.7,586.9,2725,584.1,2725z"/>
			</g>
		</g>
		<g>
			<linearGradient id="SVGID_8_" gradientUnits="userSpaceOnUse" x1="4017.5444" y1="1422.4913" x2="2986.7449" y2="2580.375">
				<stop  offset="0" style="stop-color:#4F52FF"/>
				<stop  offset="1" style="stop-color:#4042E2"/>
			</linearGradient>
			<path class="st12" d="M3130.1,3241h-692.3v-850.2c0-22.3,18.1-40.4,40.4-40.4h611.5c22.3,0,40.4,18.1,40.4,40.4V3241z"/>
			<linearGradient id="SVGID_9_" gradientUnits="userSpaceOnUse" x1="3038.6042" y1="2114.7026" x2="2341.3215" y2="3171.1921">
				<stop  offset="0" style="stop-color:#4F52FF"/>
				<stop  offset="1" style="stop-color:#4042E2"/>
			</linearGradient>
			<path class="st13" d="M2926,3241h-692.3v-850.2c0-22.3,18.1-40.4,40.4-40.4h611.5c22.3,0,40.4,18.1,40.4,40.4V3241z"/>
			<g>
				<path class="st4" d="M2290.8,2604.8c-2.8,0-5.1-2.3-5.1-5.1v-105.5c0-56.2,51.7-102,115.2-102h182c2.8,0,5.1,2.3,5.1,5.1
					s-2.3,5.1-5.1,5.1h-182c-57.9,0-105,41.2-105,91.8v105.5C2295.9,2602.5,2293.6,2604.8,2290.8,2604.8z"/>
				<path class="st4" d="M2290.8,2716.7c-2.8,0-5.1-2.3-5.1-5.1v-43c0-2.8,2.3-5.1,5.1-5.1c2.8,0,5.1,2.3,5.1,5.1v43
					C2295.9,2714.4,2293.6,2716.7,2290.8,2716.7z"/>
			</g>
		</g>
		<g>
			<linearGradient id="SVGID_10_" gradientUnits="userSpaceOnUse" x1="670.5878" y1="2235.6238" x2="781.746" y2="2641.6907">
				<stop  offset="0" style="stop-color:#A22B25"/>
				<stop  offset="1" style="stop-color:#C0423C"/>
			</linearGradient>
			<path class="st14" d="M590.1,2558.8c0.3-0.1,161.7-282.8,183.5-309.4c3.7-4.5,9.3-6.8,15.1-6.1l45.1,5.4l52.9,114.5l-88.2-51.4
				c8.7,60.3-104.6,150-143.4,182.8c-3.9,3.3-4.3,9.3-0.7,13l15.5,16.2c-25.5,25.8-54.8,42.4-88,50.1L590.1,2558.8z"/>
			
				<linearGradient id="SVGID_11_" gradientUnits="userSpaceOnUse" x1="4933.0107" y1="2766.3298" x2="4913.4736" y2="3065.8926" gradientTransform="matrix(0.8974 -0.4412 0.4412 0.8974 -5062.6934 2161.1482)">
				<stop  offset="0" style="stop-color:#09005D"/>
				<stop  offset="1" style="stop-color:#1A0F91"/>
			</linearGradient>
			<path class="st15" d="M661,2515c0,0,9.9,3.2,13.3,12c1.6,4.2-0.1,9-3.8,11.6c-16.3,11.7-70.1,49.4-94.9,56.8
				c-2,0.6-4-1.2-3.5-3.3c1.3-5.8,5.4-17.3,18.7-34.1l-1.2,2.4c-1.5,3,1.8,6.2,4.8,4.5C610.9,2555.6,644.7,2535.1,661,2515z"/>
			<linearGradient id="SVGID_12_" gradientUnits="userSpaceOnUse" x1="564.6027" y1="2152.5564" x2="675.7609" y2="2340.8447">
				<stop  offset="0" style="stop-color:#A22B25"/>
				<stop  offset="1" style="stop-color:#C0423C"/>
			</linearGradient>
			<path class="st16" d="M653,2628.2c0.3-0.2,24.5-58.5,24.8-58.7c22.2-135.2,76.4-251,92.4-281.5c2.7-5.1,7.8-8.5,13.6-9l45.2-3.9
				l75,101.4l-96.8-32.4c20.8,57.3-72,168.1-103.5,208c-3.2,4.1-2.3,9.9,1.9,12.9l18.5,12.8c-19.7,30.4-45.1,52.6-76.1,66.8
				L653,2628.2z"/>
			
				<linearGradient id="SVGID_13_" gradientUnits="userSpaceOnUse" x1="4879.9609" y1="2968.1094" x2="4860.4258" y2="3267.6521" gradientTransform="matrix(0.7895 -0.6137 0.6137 0.7895 -5045.1045 3191.1018)">
				<stop  offset="0" style="stop-color:#09005D"/>
				<stop  offset="1" style="stop-color:#1A0F91"/>
			</linearGradient>
			<path class="st17" d="M713.5,2571c0,0,10.3,1.1,15.4,9.1c2.4,3.8,1.7,8.8-1.4,12.2c-13.6,14.7-58.6,62.5-81.4,74.8
				c-1.9,1-4.1-0.4-4.1-2.5c0.1-5.9,1.8-18,11.4-37.2l-0.7,2.6c-0.9,3.3,3,5.7,5.6,3.5C672.7,2620.9,701.6,2593.9,713.5,2571z"/>
			<g>
				<linearGradient id="SVGID_14_" gradientUnits="userSpaceOnUse" x1="952.8563" y1="2395.9001" x2="848.5054" y2="2094.0281">
					<stop  offset="0" style="stop-color:#09005D"/>
					<stop  offset="1" style="stop-color:#1A0F91"/>
				</linearGradient>
				<path class="st18" d="M1040.5,2253.8c0,0,40.9,60.8,44.3,88.6c3.4,27.7-11.3,37.3-54.1,40.9c-127.4,10.5-190.2-27.6-190.2-27.6
					c-8.7-55.6-14.9-69.7-87.7-99.9c0,0,92.1,7.3,110.6,0.1C881.9,2248.6,1040.5,2253.8,1040.5,2253.8z"/>
			</g>
			<g>
				
					<linearGradient id="SVGID_15_" gradientUnits="userSpaceOnUse" x1="-2459.5425" y1="2036.6888" x2="-2387.5876" y2="2217.1858" gradientTransform="matrix(0.8966 -0.4429 0.4429 0.8966 2106.9653 -1092.4487)">
					<stop  offset="0" style="stop-color:#09005D"/>
					<stop  offset="1" style="stop-color:#1A0F91"/>
				</linearGradient>
				<path class="st19" d="M885,1891.1c0,0,27-0.2,37,10c8,8.2,32.7-2.5,44.5,15.5c6.1,9.3,17.4,13.6,28,10.2
					c26.4-8.4,70.6-14.3,97.7,25.3c20.7,30.3,10.2,50.8-5.1,63.7c-11.2,9.5-13.6,26.1-4.6,37.7c8.6,11.2,12,27.3-3.9,49.2
					c-35.6,49.1-125.8-12.6-125.8-12.6l-83.6-144.4L885,1891.1z"/>
				<linearGradient id="SVGID_16_" gradientUnits="userSpaceOnUse" x1="845.3885" y1="2135.4783" x2="1081.9324" y2="2135.4783">
					<stop  offset="0" style="stop-color:#4F52FF"/>
					<stop  offset="1" style="stop-color:#4042E2"/>
				</linearGradient>
				<path class="st20" d="M929.9,2245.7c0,0-47.6-45.4-71.1-75.4c-12.7-16.2-16.7-37.6-10.8-57.4c10.7-36.1,29.7-73.4,31.5-79.2
					c2.7-8.9,56.1-8.5,56.1-8.5s105.1,68.2,146.4,183.7l-46.4,14.4c0,0-27.4-46-54.5-75.3c0,0,46.9,62,48.6,87.3L929.9,2245.7z"/>
				<linearGradient id="SVGID_17_" gradientUnits="userSpaceOnUse" x1="896.9907" y1="1976.786" x2="929.8843" y2="2129.9121">
					<stop  offset="0" style="stop-color:#A22B25"/>
					<stop  offset="1" style="stop-color:#C0423C"/>
				</linearGradient>
				<path class="st21" d="M873,1984c0.6,1.9,14.5,48.1,15.6,49c1.1,1,30.6,2.5,44.4-6.9l-28.3-62.6L873,1984z"/>
				
					<linearGradient id="SVGID_18_" gradientUnits="userSpaceOnUse" x1="4988.5303" y1="-7725.7378" x2="4990.7983" y2="-7547.6582" gradientTransform="matrix(0.723 -0.6909 0.6909 0.723 -4684.708 3572.7656)">
					<stop  offset="0" style="stop-color:#A22B25"/>
					<stop  offset="1" style="stop-color:#C0423C"/>
				</linearGradient>
				<path class="st22" d="M834.7,1932.1c0,0-9.9,22.9,1.7,57.8c11.7,34.8,30.7,37.9,42.8,29.3c12.1-8.6,27.7-24,29.7-55.6
					C910.8,1932,848.4,1903.1,834.7,1932.1z"/>
				
					<linearGradient id="SVGID_19_" gradientUnits="userSpaceOnUse" x1="5281.8418" y1="2511.7361" x2="5094.4282" y2="2706.7219" gradientTransform="matrix(0.723 -0.6909 0.6909 0.723 -4684.708 3572.7656)">
					<stop  offset="0" style="stop-color:#09005D"/>
					<stop  offset="1" style="stop-color:#1A0F91"/>
				</linearGradient>
				<path class="st23" d="M885.3,1961.5c0,0-21.1-47.2-52.6-17.8l-2.4,12.1c0,0-30.1-8.6-20.2-35.8c9.9-27.3,45.8-45.7,78-28.1
					c32.2,17.7,43.1,38.5,41.4,63.3c-1.7,24.8-20.3,16.3-20.3,16.3s-3.6-18.2-12.3-21.5c-8.7-3.2-8.5,10.6-8.5,10.6L885.3,1961.5z"
					/>
				
					<linearGradient id="SVGID_20_" gradientUnits="userSpaceOnUse" x1="5024.2095" y1="-7726.1616" x2="5026.4775" y2="-7548.082" gradientTransform="matrix(0.723 -0.6909 0.6909 0.723 -4684.708 3572.7656)">
					<stop  offset="0" style="stop-color:#A22B25"/>
					<stop  offset="1" style="stop-color:#C0423C"/>
				</linearGradient>
				<path class="st24" d="M892.6,1962c0,0-11-24.2,4.4-25.1c15.4-0.9,9.1,23.3,6,32.1L892.6,1962z"/>
				
					<linearGradient id="SVGID_21_" gradientUnits="userSpaceOnUse" x1="5161.0444" y1="2238.2327" x2="5414.561" y2="2238.2327" gradientTransform="matrix(1 0 0 1 -4163.8774 0)">
					<stop  offset="0" style="stop-color:#A22B25"/>
					<stop  offset="1" style="stop-color:#C0423C"/>
				</linearGradient>
				<path class="st25" d="M839.2,2263.6l35.8-38.9l41.3,11.1c0,0,48.2,7.5,75.8,0c27.6-7.5,27.6-7.5,27.6-7.5l62.3-19.4l9.8,27.7
					c2.5,7,0,14.8-6.1,19.1c-5.4,3.8-11.7,8-15.7,9.8c-8.2,3.6-189.1,1.1-189.1,1.1L839.2,2263.6z"/>
			</g>
			<g>
				<path class="st4" d="M957.6,2279c-0.1,0-0.3,0-0.4,0l-164.6-0.2c-4.1,0-7.4-3.3-7.4-7.4c0-4.1,3.3-7.4,7.4-7.4l164.6,0.2
					c4.1,0,7.4,3.3,7.4,7.4C964.6,2275.6,961.5,2278.8,957.6,2279z"/>
				<path class="st4" d="M644.7,2129.6h137.1c10.1,0,19.3,5.8,23.6,15l63.4,134.4H698.4c-6.5,0-12.4-4-14.8-10l-49.1-124.3
					C631.6,2137.4,636.9,2129.6,644.7,2129.6z"/>
				
					<ellipse transform="matrix(0.9519 -0.3064 0.3064 0.9519 -639.4428 329.8424)" class="st5" cx="731" cy="2201.8" rx="10.8" ry="17.6"/>
			</g>
		</g>
		<g>
			<g>
				<linearGradient id="SVGID_22_" gradientUnits="userSpaceOnUse" x1="2895.9214" y1="184.901" x2="2385.5024" y2="804.2097">
					<stop  offset="0" style="stop-color:#FF928E"/>
					<stop  offset="1" style="stop-color:#FE7062"/>
				</linearGradient>
				<path class="st26" d="M2189.1,521.4c116.8-34.6,228.1-25.3,283.7-10.6c65.7,17.4,87.5,30.4,145.7,37
					c51.7,5.8,189.2-36,171.6-4.5c-22.9,41-16.7,201.7,17.6,268.7c5,9.7-157.8,33.9-256.4,15.9c-136-24.8-179.7-66.5-269-47.6
					c-41.2,8.7-72.5,26.2-92.5,39.6C2198.9,720.8,2180,620.4,2189.1,521.4z"/>
				<path class="st27" d="M2190.6,1854.2c-2.8,0-5.1-2.3-5.1-5.1V489.5c0-2.8,2.3-5.1,5.1-5.1c2.8,0,5.1,2.3,5.1,5.1v1359.5
					C2195.7,1851.9,2193.4,1854.2,2190.6,1854.2z"/>
			</g>
			<g>
				
					<linearGradient id="SVGID_23_" gradientUnits="userSpaceOnUse" x1="1161.9514" y1="1823.1051" x2="1255.6533" y2="1823.1051" gradientTransform="matrix(-1 0 0 1 2861.6616 0)">
					<stop  offset="0" style="stop-color:#09005D"/>
					<stop  offset="1" style="stop-color:#1A0F91"/>
				</linearGradient>
				<path class="st28" d="M1606,1854.5c0-0.7,0-1.4,0.2-2.1c10.7-42.3,54.3-64,54.3-64l21,1.6c12.1,37.3,19.8,55.5,17.9,65.7
					c-0.1,0.3-0.1,0.6-0.2,0.8C1681.9,1858.1,1646.3,1859.1,1606,1854.5z"/>
				
					<linearGradient id="SVGID_24_" gradientUnits="userSpaceOnUse" x1="1242.0415" y1="981.3559" x2="1225.0275" y2="1428.8231" gradientTransform="matrix(-1 0 0 1 2861.6616 0)">
					<stop  offset="0" style="stop-color:#4F52FF"/>
					<stop  offset="1" style="stop-color:#4042E2"/>
				</linearGradient>
				<path class="st29" d="M1699.5,1856.5c-0.9,3.4-3.4,6-6.7,6.7c-24.6,5.2-63.8,1-80.2-1.1c-3.6-0.5-6.3-3.8-6.3-7.6
					C1646.5,1859.1,1682.1,1858.1,1699.5,1856.5z"/>
				
					<linearGradient id="SVGID_25_" gradientUnits="userSpaceOnUse" x1="3480.7983" y1="1713.1531" x2="3462.0918" y2="1876.4128" gradientTransform="matrix(1 0 0 1 -1811.8352 0)">
					<stop  offset="0" style="stop-color:#FEBBBA"/>
					<stop  offset="1" style="stop-color:#FF928E"/>
				</linearGradient>
				<path class="st30" d="M1643.2,1755.7l9.2,44.2c0.7,3.2,3.2,5.7,6.2,6c3.7,0.3,8.9,0.5,14.2-0.2c4.7-0.7,8-5.5,7.2-10.7
					l-6.4-39.3H1643.2z"/>
				
					<linearGradient id="SVGID_26_" gradientUnits="userSpaceOnUse" x1="3725.197" y1="1592.0454" x2="3708.1831" y2="2039.516" gradientTransform="matrix(1 0 0 1 -1811.8352 0)">
					<stop  offset="0" style="stop-color:#4F52FF"/>
					<stop  offset="1" style="stop-color:#4042E2"/>
				</linearGradient>
				<path class="st31" d="M1877.2,1856.2c-22.4-0.6-34-3.3-40-5.7c0,2.2,0,4.5,0.1,6.8c0.1,2.5,1.9,4.5,4.2,4.5l123.1-0.8
					c3.9,0,6.2-4.6,4.5-8.2C1953,1854.1,1911.9,1857.1,1877.2,1856.2z"/>
				
					<linearGradient id="SVGID_27_" gradientUnits="userSpaceOnUse" x1="3649.3391" y1="1824.4366" x2="3781.2087" y2="1824.4366" gradientTransform="matrix(1 0 0 1 -1811.8352 0)">
					<stop  offset="0" style="stop-color:#09005D"/>
					<stop  offset="1" style="stop-color:#1A0F91"/>
				</linearGradient>
				<path class="st32" d="M1969.4,1852.8c-0.1-0.3-0.3-0.6-0.5-0.9c-10.9-15.2-38.5-45.4-93.2-58.5l-26.2-0.8
					c0,0-11.7,20.3-11.9,57.9c6,2.4,17.6,5.1,40,5.7C1912.1,1857.1,1953.2,1854.1,1969.4,1852.8z"/>
				
					<linearGradient id="SVGID_28_" gradientUnits="userSpaceOnUse" x1="3677.8601" y1="1734.0402" x2="3660.3611" y2="1886.7589" gradientTransform="matrix(1 0 0 1 -1811.8352 0)">
					<stop  offset="0" style="stop-color:#FEBBBA"/>
					<stop  offset="1" style="stop-color:#FF928E"/>
				</linearGradient>
				<path class="st33" d="M1844.5,1752.8c0.3,2,3.9,31.7,5.3,43.2c0.3,2.7,2.3,4.9,4.8,5.2c4.5,0.5,11.7,1,18-0.3
					c3.4-0.7,5.9-4,5.9-7.8v-46.7L1844.5,1752.8z"/>
				<linearGradient id="SVGID_29_" gradientUnits="userSpaceOnUse" x1="2095.6948" y1="1048.4189" x2="1430.6053" y2="1923.7946">
					<stop  offset="0" style="stop-color:#09005D"/>
					<stop  offset="1" style="stop-color:#1A0F91"/>
				</linearGradient>
				<path class="st34" d="M1660.8,1174.9c0,0-42,373.2-18.7,606.5c0,0,28,0,42-4.7c0,0,43.6-364.9,57.7-469.3
					c0.5-3.9,6.2-4.1,6.9-0.2c17.4,87.8,85.8,432.3,93.9,464.9c0,0,23.3,9.3,42,0c0,0-37.3-499.2-65.3-587.8L1660.8,1174.9z"/>
				<linearGradient id="SVGID_30_" gradientUnits="userSpaceOnUse" x1="2026.9644" y1="400.1194" x2="1768.3517" y2="842.4835">
					<stop  offset="0" style="stop-color:#FF928E"/>
					<stop  offset="1" style="stop-color:#FE7062"/>
				</linearGradient>
				<path class="st35" d="M1576.8,741.1c0,0,141.1-19.1,270,0.4c31.9,4.8,54.1,34.2,49.8,66.1l-11.8,87.5c0,0-37.3,200.6-65.3,289.2
					c0,0-107.3,18.7-158.6-9.3c0,0-42-251.9-65.3-289.2C1595.5,885.7,1572.1,787.7,1576.8,741.1z"/>
				<linearGradient id="SVGID_31_" gradientUnits="userSpaceOnUse" x1="1709.7966" y1="815.9373" x2="1743.825" y2="606.6645">
					<stop  offset="0" style="stop-color:#FEBBBA"/>
					<stop  offset="1" style="stop-color:#FF928E"/>
				</linearGradient>
				<path class="st36" d="M1700,613.6L1682.3,733c0,0,49.3,22.7,83.9-1l-7.4-84.3L1700,613.6z"/>
				<g>
					
						<linearGradient id="SVGID_32_" gradientUnits="userSpaceOnUse" x1="10845.3047" y1="-1893.0256" x2="10992.2598" y2="-1928.7925" gradientTransform="matrix(0.8757 -0.4828 0.4828 0.8757 133.6748 1095.1436)">
						<stop  offset="0" style="stop-color:#FEBBBA"/>
						<stop  offset="1" style="stop-color:#FF928E"/>
					</linearGradient>
					<path class="st37" d="M1776,535.8c0.6,1,11.2,61.2,17.8,98.5c2.7,15.4-8.6,29.7-24.2,30.6l-14.3,0.8
						c-26.3,1.6-49.4-17.1-53.4-43.2l-10.3-67.5C1691.5,555.1,1762.5,511.3,1776,535.8z"/>
					
						<linearGradient id="SVGID_33_" gradientUnits="userSpaceOnUse" x1="1586.6665" y1="291.7297" x2="1738.0306" y2="291.7297" gradientTransform="matrix(0.8757 -0.4828 0.4828 0.8757 133.6748 1095.1436)">
						<stop  offset="0" style="stop-color:#09005D"/>
						<stop  offset="1" style="stop-color:#1A0F91"/>
					</linearGradient>
					<path class="st38" d="M1676.1,555.3c-5.5-6.8-10.3-17.8,1.4-29.4c11.8-11.7,25.2-8.8,33.7-4.9c3.8,1.7,8.4,1,11.1-2.2
						c1.2-1.4,3-2.4,5.6-2.1c4.9,0.6,9.4-2.7,9.9-7.6c1-8.5,5.5-18.4,20.5-21.3c27.5-5.3,41.2,22.2,40.7,41.5
						c-0.5,19.3-30.6,23.4-47.7,20.2c-12.5-2.4-23.4,8.7-28.3,14.7c-1.8,2.2-2.4,5-1.8,7.8l4.3,18.7c-3,5.8-6,11.7-10.2,16.7
						c-3,3.6-6.4,5.5-9.9,6.4c-5.1-9.5-19.4-11.1-26.1-11.4c-2.5-0.1-4.9-1.2-6.6-3.1c-5-5.8-12.9-18.6,2.2-31.2
						C1678.7,564.7,1679.2,559.1,1676.1,555.3z"/>
					
						<linearGradient id="SVGID_34_" gradientUnits="userSpaceOnUse" x1="10840.2129" y1="-1914.3344" x2="10987.1709" y2="-1950.1016" gradientTransform="matrix(0.8757 -0.4828 0.4828 0.8757 133.6748 1095.1436)">
						<stop  offset="0" style="stop-color:#FEBBBA"/>
						<stop  offset="1" style="stop-color:#FF928E"/>
					</linearGradient>
					<path class="st39" d="M1710.5,633.6c0,0-0.6-33.7-14.2-36.9c-13.6-3.2-28.4,6.7-16.7,26.9
						C1694.1,648.7,1710.5,633.6,1710.5,633.6z"/>
				</g>
				<linearGradient id="SVGID_35_" gradientUnits="userSpaceOnUse" x1="1808.9828" y1="272.6844" x2="1550.3699" y2="715.049">
					<stop  offset="0" style="stop-color:#FF928E"/>
					<stop  offset="1" style="stop-color:#FE7062"/>
				</linearGradient>
				<path class="st40" d="M1656.6,902.1c0,0-400.6-109-201.7-389.4l13.5,19.1c0,0-59.9,189.9,138.6,208
					C1607,739.7,1658.4,872.3,1656.6,902.1z"/>
				<linearGradient id="SVGID_36_" gradientUnits="userSpaceOnUse" x1="1504.251" y1="429.0112" x2="1456.8795" y2="584.6603">
					<stop  offset="0" style="stop-color:#FEBBBA"/>
					<stop  offset="1" style="stop-color:#FF928E"/>
				</linearGradient>
				<path class="st41" d="M1453.6,514.2c0,0-4.5-54.1,22.6-58.7c27.1-4.5,36.1,22.6,40.6,36.1c4.5,13.5-40.6,40.6-49.6,40.6
					C1458.1,532.2,1453.6,514.2,1453.6,514.2z"/>
				<linearGradient id="SVGID_37_" gradientUnits="userSpaceOnUse" x1="2231.4363" y1="519.6556" x2="1972.8234" y2="962.0201">
					<stop  offset="0" style="stop-color:#FF928E"/>
					<stop  offset="1" style="stop-color:#FE7062"/>
				</linearGradient>
				<path class="st42" d="M1872.5,932.1c0,0,51.8,204.9,311.5-20.8l-19.9-12.2c0,0-228.6,162.2-268.9-114.5
					C1895.1,784.6,1872.5,907.2,1872.5,932.1z"/>
				
					<linearGradient id="SVGID_38_" gradientUnits="userSpaceOnUse" x1="5916.6138" y1="2057.2375" x2="5869.2437" y2="2212.8818" gradientTransform="matrix(-6.670000e-02 -0.9978 -0.9978 6.670000e-02 4711.5127 6622.8477)">
					<stop  offset="0" style="stop-color:#FEBBBA"/>
					<stop  offset="1" style="stop-color:#FF928E"/>
				</linearGradient>
				<path class="st43" d="M2182.6,912.7c0,0,54.3,0.9,57-26.4c2.7-27.3-24.9-34.5-38.7-38.1c-13.8-3.6-37.8,43.2-37.2,52.2
					C2164.3,909.4,2182.6,912.7,2182.6,912.7z"/>
			</g>
		</g>
		<g>
			
				<linearGradient id="SVGID_39_" gradientUnits="userSpaceOnUse" x1="-6207.2979" y1="2353.6306" x2="-6071.8589" y2="2353.6306" gradientTransform="matrix(-1 0 0 1 -3471.8828 0)">
				<stop  offset="0" style="stop-color:#2B3582"/>
				<stop  offset="0.3921" style="stop-color:#23286C"/>
				<stop  offset="1" style="stop-color:#150E42"/>
			</linearGradient>
			<path class="st44" d="M2603.8,2347.1c23.2,2,63.5,5.3,95.2,6.7c19.1,0.8,30.1-1,36.4-3.6c0,0.7,0,1.4-0.1,2
				c-0.2,3.3-2.9,6-6.2,6.2c-60,3.3-107.7,1.2-124.7,0.1c-3.5-0.2-5.6-4-3.8-7C2601.5,2350,2602.6,2348.5,2603.8,2347.1z"/>
			
				<linearGradient id="SVGID_40_" gradientUnits="userSpaceOnUse" x1="-6207.3057" y1="2327.0862" x2="-6075.6831" y2="2327.0862" gradientTransform="matrix(-1 0 0 1 -3471.8828 0)">
				<stop  offset="0" style="stop-color:#09005D"/>
				<stop  offset="1" style="stop-color:#1A0F91"/>
			</linearGradient>
			<path class="st45" d="M2699,2353.7c-31.7-1.4-72-4.7-95.2-6.7c22.8-28,95.2-46.9,95.2-46.9h20.4c14.1,20.3,16.1,39.6,15.9,50
				C2729.1,2352.7,2718.1,2354.6,2699,2353.7z"/>
			
				<linearGradient id="SVGID_41_" gradientUnits="userSpaceOnUse" x1="-6194.7939" y1="2290.0266" x2="-6156.6431" y2="2290.0266" gradientTransform="matrix(-1 0 0 1 -3471.8828 0)">
				<stop  offset="0" style="stop-color:#FEBBBA"/>
				<stop  offset="1" style="stop-color:#FF928E"/>
			</linearGradient>
			<path class="st46" d="M2722.9,2266.8l-1.9,37.9c-0.2,4.1-3.3,7.5-7.4,8.1c-4.1,0.6-9.6,0.7-15.4-1.3c-3.6-1.2-6.2-4.2-6.9-7.9
				l-6.6-36.9H2722.9z"/>
			<g>
				
					<linearGradient id="SVGID_42_" gradientUnits="userSpaceOnUse" x1="-6449.0391" y1="2387.2151" x2="-6397.1367" y2="2387.2151" gradientTransform="matrix(-1 0 0 1 -3471.8828 0)">
					<stop  offset="0" style="stop-color:#2B3582"/>
					<stop  offset="0.3921" style="stop-color:#23286C"/>
					<stop  offset="1" style="stop-color:#150E42"/>
				</linearGradient>
				<path class="st47" d="M2960.3,2390.8c10.1-1.8,14.6-8.6,16.5-15.8c0,0.1,0,0.1,0,0.2c1.5,7.6-2,15.5-8.8,19.3
					c-8.3,4.5-17.4,5.3-24.4,4.9c-7.6-0.4-14.5-4.4-18.3-10.9l-0.1-0.1C2932.8,2393.2,2943.5,2393.8,2960.3,2390.8z"/>
				
					<linearGradient id="SVGID_43_" gradientUnits="userSpaceOnUse" x1="-6448.6616" y1="2335.5662" x2="-6372.4785" y2="2335.5662" gradientTransform="matrix(-1 0 0 1 -3471.8828 0)">
					<stop  offset="0" style="stop-color:#09005D"/>
					<stop  offset="1" style="stop-color:#1A0F91"/>
				</linearGradient>
				<path class="st48" d="M2912.8,2278.5h16.9c25.7-0.7,41.8,69.3,47.1,96.5c-1.9,7.2-6.5,14-16.5,15.8c-16.8,3-27.4,2.5-35-2.4
					c-13.9-23.6-20.8-58.2-24.1-78.3C2897.4,2287.1,2912.8,2278.5,2912.8,2278.5z"/>
			</g>
			
				<linearGradient id="SVGID_44_" gradientUnits="userSpaceOnUse" x1="-6409.063" y1="2270.1328" x2="-6363.4692" y2="2270.1328" gradientTransform="matrix(-1 0 0 1 -3471.8828 0)">
				<stop  offset="0" style="stop-color:#FEBBBA"/>
				<stop  offset="1" style="stop-color:#FF928E"/>
			</linearGradient>
			<path class="st49" d="M2927.5,2243.4l9.4,37.2c1.1,4.6-1,9.3-5.3,11.5c-5.2,2.7-12.6,5.5-19.4,4.7c-3.2-0.4-5.8-2.6-6.9-5.6
				l-13.7-39.2L2927.5,2243.4z"/>
			<linearGradient id="SVGID_45_" gradientUnits="userSpaceOnUse" x1="2894.3115" y1="1631.2389" x2="2577.8674" y2="2549.9465">
				<stop  offset="0" style="stop-color:#2B3582"/>
				<stop  offset="0.3921" style="stop-color:#23286C"/>
				<stop  offset="1" style="stop-color:#150E42"/>
			</linearGradient>
			<path class="st50" d="M2598.1,1752.8c0,0,83.7,523.1,82.3,526c0,0,23.1,10.5,48.3,1.3c0,0-7.6-279.6-25.3-386.9
				c0,0,142.8,249.9,188.2,374.5c0,0,23.7-2.8,43.2-15.7c0,0-153.8-449.9-194.8-509.8L2598.1,1752.8z"/>
			<linearGradient id="SVGID_46_" gradientUnits="userSpaceOnUse" x1="3060.6233" y1="1060.6359" x2="2580.8525" y2="2050.7991">
				<stop  offset="0" style="stop-color:#2B3582"/>
				<stop  offset="0.3921" style="stop-color:#23286C"/>
				<stop  offset="1" style="stop-color:#150E42"/>
			</linearGradient>
			<path class="st51" d="M2700.1,1891.4c-1.1,0-2.2-0.6-2.9-1.6l-30.5-48.7l-21.6-4.3c-1.8-0.4-3-2.1-2.6-4c0.4-1.8,2.1-3,4-2.6
				l23,4.6c0.9,0.2,1.7,0.7,2.2,1.5l31.3,50c1,1.6,0.5,3.7-1.1,4.6C2701.3,1891.3,2700.7,1891.4,2700.1,1891.4z"/>
			
				<linearGradient id="SVGID_47_" gradientUnits="userSpaceOnUse" x1="-5781.9429" y1="1309.7504" x2="-5962.519" y2="1544.675" gradientTransform="matrix(-1 0 0 1 -3471.8828 0)">
				<stop  offset="0" style="stop-color:#FEBBBA"/>
				<stop  offset="1" style="stop-color:#FF928E"/>
			</linearGradient>
			<path class="st52" d="M2214.1,1240.6c0,0,56.5,12.5,90.8,28.3c6.8,3.1,12.3,8.7,15.4,15.4c10.3,22.5,41,78.9,100.6,105.9
				c-8.6,11.4-22.4,35.1-28.4,74.9c-35.8-26.6-66.7-71.1-81.5-144.1c0,0-11.3,6.1-25.4-0.7c-7.4-3.6-16-8.7-22.5-12.8
				c-6.4-4-11.2-10.3-13.1-17.6c-2.5-9.6-1-18.1-1-27.2l-29-9C2219.9,1253.7,2211.1,1250.5,2214.1,1240.6z"/>
			
				<linearGradient id="SVGID_48_" gradientUnits="userSpaceOnUse" x1="-5996.1587" y1="1364.7811" x2="-6599.0356" y2="2079.302" gradientTransform="matrix(-1 0 0 1 -3471.8828 0)">
				<stop  offset="0" style="stop-color:#4F52FF"/>
				<stop  offset="1" style="stop-color:#4042E2"/>
			</linearGradient>
			<path class="st53" d="M2392.4,1465.1c6-39.8,19.8-63.5,28.4-74.9c37,16.7,85.2,22.1,146.5,0.8c5.7-2,11.6-3.1,17.5-3.5
				c32.7-1.9,140.2-5.4,229.3,24c18.7,6.2,33.9,20,41.7,38c24.1,55.3,63.1,181.1-45.2,244.7c-8.3-20.6-17.9-37.2-26.1-49.4
				c17.4-29.4,22.6-69.6-8.3-121.9c-22.6,60.9-33.1,149.8-35.3,189.1c-0.7,12.9,1.5,25.9,6.6,37.8l0.6,1.3c1.1,2.6-0.4,5.5-3.1,6.1
				c-60.9,13.7-124.3,10-143.3,8.4c-3.4-0.3-6.2-2.7-7-6c-29.6-124.9-29.7-210-22.4-263.9
				C2544.6,1502.1,2459.8,1515.3,2392.4,1465.1z"/>
			<linearGradient id="SVGID_49_" gradientUnits="userSpaceOnUse" x1="3532.0371" y1="775.0622" x2="3021.6172" y2="1142.5648">
				<stop  offset="0" style="stop-color:#4F52FF"/>
				<stop  offset="1" style="stop-color:#4042E2"/>
			</linearGradient>
			<path class="st54" d="M2572.2,1500.1c-0.1,0-0.3,0-0.5,0c-1.8-0.2-3.1-1.9-2.9-3.8c7.1-54,21.5-77.1,22.1-78.1c1-1.6,3.1-2,4.6-1
				c1.6,1,2,3.1,1,4.6c-0.1,0.2-14.2,23.1-21.1,75.4C2575.3,1498.9,2573.8,1500.1,2572.2,1500.1z"/>
			
				<linearGradient id="SVGID_50_" gradientUnits="userSpaceOnUse" x1="-6184.4434" y1="1461.5858" x2="-6164.688" y2="1357.8702" gradientTransform="matrix(-1 0 0 1 -3471.8828 0)">
				<stop  offset="0" style="stop-color:#FEBBBA"/>
				<stop  offset="1" style="stop-color:#FF928E"/>
			</linearGradient>
			<path class="st55" d="M2722.6,1314.8c0,0,6.2,65.2,11.6,84.5c0.8,2.9-0.4,6-3.1,7.5c-9.2,5.3-31.3,13.8-61.5-1
				c-4.9-2.4-7.8-7.5-7.6-12.9l2.7-63L2722.6,1314.8z"/>
			<g>
				
					<linearGradient id="SVGID_51_" gradientUnits="userSpaceOnUse" x1="-6130.9883" y1="1271.3007" x2="-6243.7046" y2="1357.5459" gradientTransform="matrix(-1 0 0 1 -3471.8828 0)">
					<stop  offset="0" style="stop-color:#FEBBBA"/>
					<stop  offset="1" style="stop-color:#FF928E"/>
				</linearGradient>
				<path class="st56" d="M2663.2,1231.4c0,0-19.7,45.3-21,69.1c-1.3,23.8-6.4,39.2,21,44c27.5,4.8,50.6-8.9,63.2-32.6
					c0,0,19.7-36.5,15.2-51.4C2737.3,1245.5,2663.2,1231.4,2663.2,1231.4z"/>
				
					<linearGradient id="SVGID_52_" gradientUnits="userSpaceOnUse" x1="-6210.3359" y1="1203.0133" x2="-6105.3584" y2="1338.1716" gradientTransform="matrix(-1 0 0 1 -3471.8828 0)">
					<stop  offset="0" style="stop-color:#09005D"/>
					<stop  offset="1" style="stop-color:#1A0F91"/>
				</linearGradient>
				<path class="st57" d="M2717,1294.9l-1.6-0.7c-2-0.9-2.8-3.2-1.8-5.2c3.9-7.5,11.4-24.7,1.7-28.7c-12.6-5.2-62.4-15.3-73.2-33
					c-10.3-17-1.2-38.9,12.6-45.2c0.9-0.4,2-0.1,2.5,0.8l1.1,2.2c0.8,1.5,3,1.3,3.4-0.4c0.4-1.5,2.5-1.9,3.4-0.5
					c3.3,5.3,12.2,13.9,36.1,18.3c33.9,6.3,56.3,20,56.9,43.4c0,1.5,1.6,2.3,2.9,1.5c2.5-1.5,6.5-2.2,11.9,2.3
					c9.3,7.8,5.5,28.1-14.9,44.9c-1,0.8-1,2.3,0.1,3c3.7,2.4,9.2,8.1-5.1,15.8c-14.8,7.9-25.8,7.3-30.1,6.6
					c-1.1-0.2-1.7-1.2-1.5-2.2l4.5-20.6c0.3-1.2-0.6-2.3-1.8-2.3H2717z"/>
				
					<linearGradient id="SVGID_53_" gradientUnits="userSpaceOnUse" x1="-6144.9692" y1="1253.0282" x2="-6257.686" y2="1339.2736" gradientTransform="matrix(-1 0 0 1 -3471.8828 0)">
					<stop  offset="0" style="stop-color:#FEBBBA"/>
					<stop  offset="1" style="stop-color:#FF928E"/>
				</linearGradient>
				<path class="st58" d="M2716.2,1299.2c0,0,7.5-28.9,20.5-20.8c13,8.1-6.7,32.4-17.2,33.5L2716.2,1299.2z"/>
			</g>
			<linearGradient id="SVGID_54_" gradientUnits="userSpaceOnUse" x1="2381.1272" y1="1170.8435" x2="2260.895" y2="1313.761">
				<stop  offset="0" style="stop-color:#FEBBBA"/>
				<stop  offset="1" style="stop-color:#FF928E"/>
			</linearGradient>
			<path class="st59" d="M2295.8,1315.2c-1,0-1.9-0.4-2.6-1.2c-8.1-10-21.9-25.8-26.7-28.5c-4.2-2.4-6.6-5.1-7.4-8.2
				c-0.6-2.7,0-5.5,2-8.3c0.8-1.1,2.1-1.7,3.4-1.4l24.7,4.9c0.6,0.1,1.1,0.4,1.5,0.7l13.1,11.2c1.4,1.2,1.6,3.3,0.4,4.7
				c-1.2,1.4-3.3,1.6-4.7,0.4l-12.4-10.7l-21.3-4.3c-0.2,0.6-0.1,0.9,0,1.1c0.3,1.2,1.7,2.6,4.1,3.9c7.4,4.2,26.5,27.5,28.6,30.1
				c1.2,1.4,0.9,3.6-0.5,4.7C2297.3,1314.9,2296.6,1315.2,2295.8,1315.2z"/>
			
				<linearGradient id="SVGID_55_" gradientUnits="userSpaceOnUse" x1="-6100.2769" y1="1574.111" x2="-6164.9565" y2="1671.13" gradientTransform="matrix(-1 0 0 1 -3471.8828 0)">
				<stop  offset="0" style="stop-color:#FEBBBA"/>
				<stop  offset="1" style="stop-color:#FF928E"/>
			</linearGradient>
			<path class="st60" d="M2716.7,1738.7l-89-1.9c0,0,77.6-21.9,82.4-16c0,0,48.1-31.6,74.4-76.1c8.2,12.2,17.8,28.8,26.1,49.4
				C2787.1,1708.1,2756.1,1732.2,2716.7,1738.7z"/>
			<linearGradient id="SVGID_56_" gradientUnits="userSpaceOnUse" x1="2757.4214" y1="1589.7814" x2="2694.0437" y2="1684.8477">
				<stop  offset="0" style="stop-color:#FEBBBA"/>
				<stop  offset="1" style="stop-color:#FF928E"/>
			</linearGradient>
			<path class="st61" d="M2719.2,1723.3c0,0,1.8,35.5-44.7,30.3c-25.3-2.8-66.1-26.4-66.1-26.4S2714.8,1727,2719.2,1723.3z"/>
			<g>
				
					<linearGradient id="SVGID_57_" gradientUnits="userSpaceOnUse" x1="3738.9851" y1="1916.2114" x2="3560.7549" y2="1965.0596" gradientTransform="matrix(0.9988 -4.940000e-02 4.940000e-02 0.9988 -1090.6158 -55.0328)">
					<stop  offset="0" style="stop-color:#09005D"/>
					<stop  offset="1" style="stop-color:#1A0F91"/>
				</linearGradient>
				<path class="st62" d="M2701,1732.8c-0.2,0-0.3,0-0.5,0l-221.2-0.2c-5.5,0-9.9-4.4-9.9-9.8c0-5.4,4.5-9.9,9.9-9.8l221.2,0.2
					c5.5,0,9.9,4.4,9.9,9.8C2710.4,1728.3,2706.3,1732.6,2701,1732.8z"/>
				
					<linearGradient id="SVGID_58_" gradientUnits="userSpaceOnUse" x1="3545.9934" y1="1560.4418" x2="3420.2744" y2="1693.3188" gradientTransform="matrix(1 0 0 1 -1049.1469 0)">
					<stop  offset="0" style="stop-color:#09005D"/>
					<stop  offset="1" style="stop-color:#1A0F91"/>
				</linearGradient>
				<path class="st63" d="M2280.4,1534.1h184.2c13.6,0,26,7.8,31.8,19.9l85.2,178.7h-229c-8.8,0-16.6-5.3-19.8-13.4l-66-165.4
					C2262.9,1544.5,2270,1534.1,2280.4,1534.1z"/>
				<path class="st4" d="M2410.2,1625.7c4,12.3,1,24.2-6.6,26.6c-7.6,2.4-17.1-5.5-21-17.8c-4-12.3-1-24.2,6.6-26.6
					C2396.8,1605.5,2406.2,1613.5,2410.2,1625.7z"/>
			</g>
		</g>
		<g>
			<path class="st4" d="M2559.2,2533c7.3,80.4,36.6,573.6-327.8,677.1c-11,3.1-24.3-4-24.5-13.2c-1.2-58.5,9.4-242.1,171.1-437.4
				c116.7-140.9,160.5-205.7,174.4-228C2553.9,2529,2558.9,2530.2,2559.2,2533z"/>
			<g>
				<path class="st5" d="M2206.8,3203.6c-1.6,0-3.3-0.6-4.6-1.8c-2.8-2.5-2.9-6.9-0.4-9.6c193.3-209.7,290.3-479,293.1-496.2
					c-0.1-3,1.7-5.8,4.7-6.8c3.6-1.2,7.4,0.8,8.6,4.3c0.6,1.7,2.1,6.2-17.5,55.6c-10.5,26.6-28.7,69.3-55.4,122.3
					c-44.6,88.4-119.6,217.4-223.5,330C2210.5,3202.9,2208.7,3203.6,2206.8,3203.6z M2495.3,2697.8
					C2495.3,2697.8,2495.3,2697.8,2495.3,2697.8C2495.3,2697.8,2495.3,2697.8,2495.3,2697.8z M2495.3,2697.8
					C2495.3,2697.8,2495.3,2697.8,2495.3,2697.8C2495.3,2697.8,2495.3,2697.8,2495.3,2697.8z M2495,2695.6L2495,2695.6L2495,2695.6z
					"/>
			</g>
		</g>
		<g>
			<path class="st5" d="M2711.6,2980.5c-31.1,50.5-230.9,354.1-491.2,254.6c-7.9-3-12.5-13.1-8.6-18.6
				c25-35,112.1-138.5,293.4-182.4c130.8-31.6,185.1-50.5,203.1-57.5C2710.2,2975.9,2712.6,2978.8,2711.6,2980.5z"/>
			<linearGradient id="SVGID_59_" gradientUnits="userSpaceOnUse" x1="2204.9453" y1="3133.8132" x2="2612.916" y2="3133.8132">
				<stop  offset="0" style="stop-color:#DAE3FE"/>
				<stop  offset="1" style="stop-color:#E9EFFD"/>
			</linearGradient>
			<path class="st64" d="M2211.7,3223.3c-3.2,0-6.1-2.3-6.7-5.6c-0.7-3.7,1.7-7.2,5.4-7.9c203.9-38,379.1-152.6,390.1-162.8
				c1.7-2.3,4.8-3.4,7.6-2.4c3.6,1.2,5.5,5,4.3,8.6c-2.6,7.7-64.2,44.9-122.1,73.7c-65.3,32.5-166.4,75.6-277.4,96.3
				C2212.6,3223.3,2212.2,3223.3,2211.7,3223.3z M2599.7,3048.9C2599.7,3048.9,2599.7,3048.9,2599.7,3048.9
				C2599.7,3048.9,2599.7,3048.9,2599.7,3048.9z"/>
		</g>
	</g>
</g>
</svg>
